<mxfile host="app.diagrams.net" modified="2021-01-21T12:01:18.975Z" agent="5.0 (Macintosh; Intel Mac OS X 10_15_5) AppleWebKit/605.1.15 (KHTML, like Gecko) Version/13.1.1 Safari/605.1.15" etag="kjynjv84xwPGmgc4paH1" version="14.1.1" type="github">
  <diagram id="TMXSOWhYbLECOYfklIyv" name="Page-1">
    <mxGraphModel dx="3682" dy="784" grid="1" gridSize="10" guides="1" tooltips="1" connect="1" arrows="1" fold="1" page="1" pageScale="1" pageWidth="850" pageHeight="1100" math="0" shadow="0">
      <root>
        <mxCell id="0" />
        <mxCell id="1" parent="0" />
        <mxCell id="WNOsDTk-nys0i8xbJVlw-129" style="edgeStyle=orthogonalEdgeStyle;curved=1;orthogonalLoop=1;jettySize=auto;html=1;exitX=0.5;exitY=1;exitDx=0;exitDy=0;strokeColor=#000000;dashed=1;" parent="1" edge="1">
          <mxGeometry relative="1" as="geometry">
            <mxPoint x="-1820" y="372" as="targetPoint" />
            <mxPoint x="-1910" y="372" as="sourcePoint" />
          </mxGeometry>
        </mxCell>
        <mxCell id="WNOsDTk-nys0i8xbJVlw-130" value="mapping" style="text;html=1;align=center;verticalAlign=middle;resizable=0;points=[];autosize=1;" parent="1" vertex="1">
          <mxGeometry x="-1818" y="360" width="70" height="20" as="geometry" />
        </mxCell>
        <mxCell id="WNOsDTk-nys0i8xbJVlw-131" style="edgeStyle=orthogonalEdgeStyle;curved=1;orthogonalLoop=1;jettySize=auto;html=1;exitX=0.5;exitY=1;exitDx=0;exitDy=0;strokeColor=#000000;" parent="1" edge="1">
          <mxGeometry relative="1" as="geometry">
            <mxPoint x="-1820.0000000000002" y="412" as="targetPoint" />
            <mxPoint x="-1910.0000000000002" y="412" as="sourcePoint" />
          </mxGeometry>
        </mxCell>
        <mxCell id="WNOsDTk-nys0i8xbJVlw-132" value="structural containment" style="text;html=1;align=center;verticalAlign=middle;resizable=0;points=[];autosize=1;" parent="1" vertex="1">
          <mxGeometry x="-1823" y="400" width="160" height="20" as="geometry" />
        </mxCell>
        <mxCell id="WNOsDTk-nys0i8xbJVlw-160" value="&lt;b&gt;GENERAL ISSUES&lt;/b&gt;" style="text;html=1;align=center;verticalAlign=middle;resizable=0;points=[];autosize=1;" parent="1" vertex="1">
          <mxGeometry x="-1870" y="500" width="140" height="20" as="geometry" />
        </mxCell>
        <mxCell id="WNOsDTk-nys0i8xbJVlw-161" value="Compositions and Entries need a language, right now it is hardcoded to &quot;EN&quot;. One solution is the client library, since generates code by OPT, to set the language automatically in the class frm the OPT language. This works if the OPT supports just one language." style="shape=note;whiteSpace=wrap;html=1;backgroundOutline=1;darkOpacity=0.05;fillColor=#fff2cc;strokeColor=#d6b656;size=13;align=left;spacingLeft=4;" parent="1" vertex="1">
          <mxGeometry x="-1998" y="540" width="430" height="75" as="geometry" />
        </mxCell>
        <mxCell id="WNOsDTk-nys0i8xbJVlw-162" value="If the profile has more than one resource, it is difficult to map to one COMPOSITION in a RESTful way since FHIR does one request per resource. The workaround for now is the use the &quot;contained&quot; attribute to direct contain the children resources instead of including them by reference which is the most common option." style="shape=note;whiteSpace=wrap;html=1;backgroundOutline=1;darkOpacity=0.05;fillColor=#fff2cc;strokeColor=#d6b656;size=13;align=left;spacingLeft=4;" parent="1" vertex="1">
          <mxGeometry x="-1998" y="640" width="430" height="90" as="geometry" />
        </mxCell>
        <mxCell id="WNOsDTk-nys0i8xbJVlw-35" value="data point" style="ellipse;whiteSpace=wrap;html=1;aspect=fixed;fillColor=#d5e8d4;strokeColor=#82b366;" parent="1" vertex="1">
          <mxGeometry x="-1980" y="170" width="80" height="80" as="geometry" />
        </mxCell>
        <mxCell id="WNOsDTk-nys0i8xbJVlw-36" value="archetype" style="rounded=1;whiteSpace=wrap;html=1;fillColor=#ffe6cc;strokeColor=#d79b00;" parent="1" vertex="1">
          <mxGeometry x="-1865" y="180" width="125" height="60" as="geometry" />
        </mxCell>
        <mxCell id="WNOsDTk-nys0i8xbJVlw-37" value="template" style="rounded=1;whiteSpace=wrap;html=1;fillColor=#dae8fc;strokeColor=#6c8ebf;" parent="1" vertex="1">
          <mxGeometry x="-1710" y="180" width="120" height="60" as="geometry" />
        </mxCell>
        <mxCell id="WNOsDTk-nys0i8xbJVlw-38" value="profile" style="rounded=1;whiteSpace=wrap;html=1;fillColor=#f8cecc;strokeColor=#b85450;" parent="1" vertex="1">
          <mxGeometry x="-1865" y="270" width="124.5" height="60" as="geometry" />
        </mxCell>
        <mxCell id="WNOsDTk-nys0i8xbJVlw-39" value="note" style="shape=note;whiteSpace=wrap;html=1;backgroundOutline=1;darkOpacity=0.05;fillColor=#fff2cc;strokeColor=#d6b656;size=13;align=left;spacingLeft=4;" parent="1" vertex="1">
          <mxGeometry x="-1710" y="272.5" width="120" height="57.5" as="geometry" />
        </mxCell>
        <mxCell id="2" value="REFERENCE" style="text;html=1;align=center;verticalAlign=middle;resizable=0;points=[];autosize=1;fontStyle=1" parent="1" vertex="1">
          <mxGeometry x="-1852.5" y="120" width="100" height="20" as="geometry" />
        </mxCell>
        <mxCell id="WNOsDTk-nys0i8xbJVlw-103" value="reference" style="ellipse;whiteSpace=wrap;html=1;aspect=fixed;fillColor=#e1d5e7;strokeColor=#9673a6;" parent="1" vertex="1">
          <mxGeometry x="-1980" y="260" width="80" height="80" as="geometry" />
        </mxCell>
        <mxCell id="48C0j_drKvZkJ34L1-IZ-98" value="resource" style="rounded=1;whiteSpace=wrap;html=1;fillColor=#f5f5f5;strokeColor=#666666;fontColor=#333333;" parent="1" vertex="1">
          <mxGeometry x="-1568" y="270" width="124.5" height="60" as="geometry" />
        </mxCell>
        <mxCell id="BWCG1YFNvTNrp1tG9PvR-2" value="SOFA Score" style="rounded=1;whiteSpace=wrap;html=1;fillColor=#f8cecc;strokeColor=#b85450;" parent="1" vertex="1">
          <mxGeometry x="-894.5" y="250" width="124.5" height="60" as="geometry" />
        </mxCell>
        <UserObject label="https://simplifier.net/forschungsnetzcovid-19/sofa" link="https://simplifier.net/forschungsnetzcovid-19/bloodpressure" id="BWCG1YFNvTNrp1tG9PvR-3">
          <mxCell style="shape=note;whiteSpace=wrap;html=1;backgroundOutline=1;darkOpacity=0.05;fillColor=#fff2cc;strokeColor=#d6b656;size=13;align=left;spacingLeft=4;" parent="1" vertex="1">
            <mxGeometry x="-1275" y="255" width="240" height="50" as="geometry" />
          </mxCell>
        </UserObject>
        <mxCell id="BWCG1YFNvTNrp1tG9PvR-5" value="component:&lt;br&gt;Backbone-&lt;br&gt;Element" style="ellipse;whiteSpace=wrap;html=1;aspect=fixed;fillColor=#d5e8d4;strokeColor=#82b366;" parent="1" vertex="1">
          <mxGeometry x="-1080" y="360" width="80" height="80" as="geometry" />
        </mxCell>
        <mxCell id="h2Y0RTakNAgf0IYQmvkw-2" value="coding:&amp;nbsp;&lt;br&gt;Coding" style="ellipse;whiteSpace=wrap;html=1;aspect=fixed;fillColor=#d5e8d4;strokeColor=#82b366;" parent="1" vertex="1">
          <mxGeometry x="-620" y="520" width="80" height="80" as="geometry" />
        </mxCell>
        <mxCell id="h2Y0RTakNAgf0IYQmvkw-8" style="edgeStyle=orthogonalEdgeStyle;curved=1;orthogonalLoop=1;jettySize=auto;html=1;exitX=0.5;exitY=1;exitDx=0;exitDy=0;strokeColor=#000000;entryX=0.5;entryY=0;entryDx=0;entryDy=0;entryPerimeter=0;" parent="1" source="BWCG1YFNvTNrp1tG9PvR-2" target="IjaonLrTJWPJzYlzKZe0-2" edge="1">
          <mxGeometry relative="1" as="geometry">
            <mxPoint x="-800" y="560" as="targetPoint" />
            <mxPoint x="-910" y="480" as="sourcePoint" />
            <Array as="points">
              <mxPoint x="-680" y="390" />
              <mxPoint x="-740" y="390" />
            </Array>
          </mxGeometry>
        </mxCell>
        <mxCell id="h2Y0RTakNAgf0IYQmvkw-9" value="subject: ref" style="ellipse;whiteSpace=wrap;html=1;aspect=fixed;fillColor=#e1d5e7;strokeColor=#9673a6;" parent="1" vertex="1">
          <mxGeometry x="-480" y="370" width="80" height="80" as="geometry" />
        </mxCell>
        <mxCell id="h2Y0RTakNAgf0IYQmvkw-10" style="edgeStyle=orthogonalEdgeStyle;curved=1;orthogonalLoop=1;jettySize=auto;html=1;strokeColor=#000000;entryX=0.5;entryY=0;entryDx=0;entryDy=0;exitX=0.5;exitY=1;exitDx=0;exitDy=0;" parent="1" source="BWCG1YFNvTNrp1tG9PvR-2" target="h2Y0RTakNAgf0IYQmvkw-9" edge="1">
          <mxGeometry relative="1" as="geometry">
            <mxPoint x="-760" y="580" as="targetPoint" />
            <mxPoint x="-910" y="490" as="sourcePoint" />
            <Array as="points">
              <mxPoint x="-680" y="350" />
              <mxPoint x="-580" y="350" />
            </Array>
          </mxGeometry>
        </mxCell>
        <mxCell id="h2Y0RTakNAgf0IYQmvkw-11" style="edgeStyle=orthogonalEdgeStyle;curved=1;orthogonalLoop=1;jettySize=auto;html=1;strokeColor=#000000;entryX=0.5;entryY=0;entryDx=0;entryDy=0;exitX=0.5;exitY=1;exitDx=0;exitDy=0;" parent="1" source="BWCG1YFNvTNrp1tG9PvR-2" target="BWCG1YFNvTNrp1tG9PvR-5" edge="1">
          <mxGeometry relative="1" as="geometry">
            <mxPoint x="-890" y="400" as="targetPoint" />
            <mxPoint x="-850" y="330" as="sourcePoint" />
            <Array as="points">
              <mxPoint x="-832" y="320" />
              <mxPoint x="-1040" y="320" />
            </Array>
          </mxGeometry>
        </mxCell>
        <mxCell id="h2Y0RTakNAgf0IYQmvkw-13" value="effective: dateTime" style="ellipse;whiteSpace=wrap;html=1;aspect=fixed;fillColor=#d5e8d4;strokeColor=#82b366;" parent="1" vertex="1">
          <mxGeometry x="-360" y="370" width="80" height="80" as="geometry" />
        </mxCell>
        <mxCell id="h2Y0RTakNAgf0IYQmvkw-14" style="edgeStyle=orthogonalEdgeStyle;curved=1;orthogonalLoop=1;jettySize=auto;html=1;strokeColor=#000000;entryX=0.5;entryY=0;entryDx=0;entryDy=0;exitX=0.5;exitY=1;exitDx=0;exitDy=0;" parent="1" source="BWCG1YFNvTNrp1tG9PvR-2" target="h2Y0RTakNAgf0IYQmvkw-13" edge="1">
          <mxGeometry relative="1" as="geometry">
            <mxPoint x="-570" y="410" as="targetPoint" />
            <mxPoint x="-670" y="330" as="sourcePoint" />
            <Array as="points">
              <mxPoint x="-680" y="330" />
              <mxPoint x="-440" y="330" />
            </Array>
          </mxGeometry>
        </mxCell>
        <mxCell id="h2Y0RTakNAgf0IYQmvkw-15" value="SOFA-SCORE" style="rounded=1;whiteSpace=wrap;html=1;fillColor=#dae8fc;strokeColor=#6c8ebf;" parent="1" vertex="1">
          <mxGeometry x="-110" y="180" width="200" height="60" as="geometry" />
        </mxCell>
        <mxCell id="h2Y0RTakNAgf0IYQmvkw-16" value="&lt;div class=&quot;cm-node-details-value cm-node-details-arch-id&quot;&gt;openEHR-EHR-COMPOSITION.report-result.v1&lt;/div&gt;" style="rounded=1;whiteSpace=wrap;html=1;fillColor=#ffe6cc;strokeColor=#d79b00;" parent="1" vertex="1">
          <mxGeometry x="-110" y="310" width="200" height="60" as="geometry" />
        </mxCell>
        <mxCell id="h2Y0RTakNAgf0IYQmvkw-17" value="&lt;div class=&quot;cm-node-details-value cm-node-details-arch-id&quot;&gt;&lt;span style=&quot;font-family: &amp;#34;tahoma&amp;#34; , &amp;#34;arial&amp;#34; , &amp;#34;helvetica&amp;#34; , sans-serif ; font-size: 11px&quot;&gt;openEHR-EHR-OBSERVATION.sofa_score.v0&lt;/span&gt;&lt;br&gt;&lt;/div&gt;" style="rounded=1;whiteSpace=wrap;html=1;fillColor=#ffe6cc;strokeColor=#d79b00;" parent="1" vertex="1">
          <mxGeometry x="-260" y="520" width="220" height="60" as="geometry" />
        </mxCell>
        <mxCell id="h2Y0RTakNAgf0IYQmvkw-20" value="sofaScore-&lt;br&gt;Magnitude:&lt;br&gt;Long" style="ellipse;whiteSpace=wrap;html=1;aspect=fixed;fillColor=#d5e8d4;strokeColor=#82b366;" parent="1" vertex="1">
          <mxGeometry x="-425" y="630" width="80" height="80" as="geometry" />
        </mxCell>
        <mxCell id="h2Y0RTakNAgf0IYQmvkw-26" value="start- timeValue: DateTime" style="ellipse;whiteSpace=wrap;html=1;aspect=fixed;fillColor=#d5e8d4;strokeColor=#82b366;" parent="1" vertex="1">
          <mxGeometry x="450" y="440" width="80" height="80" as="geometry" />
        </mxCell>
        <mxCell id="h2Y0RTakNAgf0IYQmvkw-27" style="edgeStyle=orthogonalEdgeStyle;curved=1;orthogonalLoop=1;jettySize=auto;html=1;exitX=0.5;exitY=1;exitDx=0;exitDy=0;strokeColor=#000000;entryX=0.5;entryY=0;entryDx=0;entryDy=0;" parent="1" source="h2Y0RTakNAgf0IYQmvkw-17" target="h2Y0RTakNAgf0IYQmvkw-20" edge="1">
          <mxGeometry relative="1" as="geometry">
            <mxPoint x="-310" y="660" as="targetPoint" />
            <mxPoint x="-210" y="580" as="sourcePoint" />
            <Array as="points">
              <mxPoint x="-385" y="580" />
            </Array>
          </mxGeometry>
        </mxCell>
        <mxCell id="h2Y0RTakNAgf0IYQmvkw-28" style="edgeStyle=orthogonalEdgeStyle;curved=1;orthogonalLoop=1;jettySize=auto;html=1;exitX=0.5;exitY=1;exitDx=0;exitDy=0;strokeColor=#000000;entryX=0.5;entryY=0;entryDx=0;entryDy=0;" parent="1" source="h2Y0RTakNAgf0IYQmvkw-17" target="HiJEzuG3LjdG-relU3VR-46" edge="1">
          <mxGeometry relative="1" as="geometry">
            <mxPoint x="-190" y="640" as="targetPoint" />
            <mxPoint x="-150" y="590" as="sourcePoint" />
            <Array as="points">
              <mxPoint x="-150" y="600" />
              <mxPoint x="-280" y="600" />
            </Array>
          </mxGeometry>
        </mxCell>
        <mxCell id="h2Y0RTakNAgf0IYQmvkw-33" style="edgeStyle=orthogonalEdgeStyle;curved=1;orthogonalLoop=1;jettySize=auto;html=1;exitX=0.5;exitY=1;exitDx=0;exitDy=0;strokeColor=#000000;" parent="1" source="h2Y0RTakNAgf0IYQmvkw-16" edge="1">
          <mxGeometry relative="1" as="geometry">
            <mxPoint x="-160" y="520" as="targetPoint" />
            <mxPoint x="-150" y="590" as="sourcePoint" />
            <Array as="points">
              <mxPoint x="-10" y="490" />
              <mxPoint x="-160" y="490" />
            </Array>
          </mxGeometry>
        </mxCell>
        <mxCell id="h2Y0RTakNAgf0IYQmvkw-34" style="edgeStyle=orthogonalEdgeStyle;curved=1;orthogonalLoop=1;jettySize=auto;html=1;exitX=0.5;exitY=1;exitDx=0;exitDy=0;strokeColor=#000000;entryX=0.5;entryY=0;entryDx=0;entryDy=0;" parent="1" source="h2Y0RTakNAgf0IYQmvkw-16" target="h2Y0RTakNAgf0IYQmvkw-18" edge="1">
          <mxGeometry relative="1" as="geometry">
            <mxPoint x="-150" y="530" as="targetPoint" />
            <mxPoint y="450" as="sourcePoint" />
            <Array as="points">
              <mxPoint x="-10" y="410" />
              <mxPoint x="260" y="410" />
            </Array>
          </mxGeometry>
        </mxCell>
        <mxCell id="h2Y0RTakNAgf0IYQmvkw-36" style="edgeStyle=orthogonalEdgeStyle;curved=1;orthogonalLoop=1;jettySize=auto;html=1;exitX=0.5;exitY=1;exitDx=0;exitDy=0;strokeColor=#000000;entryX=0.5;entryY=0;entryDx=0;entryDy=0;" parent="1" source="h2Y0RTakNAgf0IYQmvkw-16" target="h2Y0RTakNAgf0IYQmvkw-26" edge="1">
          <mxGeometry relative="1" as="geometry">
            <mxPoint x="695" y="530" as="targetPoint" />
            <mxPoint y="450" as="sourcePoint" />
            <Array as="points">
              <mxPoint x="-10" y="400" />
              <mxPoint x="490" y="400" />
            </Array>
          </mxGeometry>
        </mxCell>
        <mxCell id="h2Y0RTakNAgf0IYQmvkw-38" value="" style="endArrow=classic;html=1;exitX=0.5;exitY=1;exitDx=0;exitDy=0;entryX=0.5;entryY=0;entryDx=0;entryDy=0;" parent="1" source="h2Y0RTakNAgf0IYQmvkw-15" target="h2Y0RTakNAgf0IYQmvkw-16" edge="1">
          <mxGeometry width="50" height="50" relative="1" as="geometry">
            <mxPoint x="90" y="600" as="sourcePoint" />
            <mxPoint x="140" y="550" as="targetPoint" />
            <Array as="points" />
          </mxGeometry>
        </mxCell>
        <mxCell id="h2Y0RTakNAgf0IYQmvkw-45" style="edgeStyle=orthogonalEdgeStyle;curved=1;orthogonalLoop=1;jettySize=auto;html=1;exitX=0.404;exitY=1.013;exitDx=0;exitDy=0;dashed=1;exitPerimeter=0;" parent="1" source="h2Y0RTakNAgf0IYQmvkw-13" target="h2Y0RTakNAgf0IYQmvkw-26" edge="1">
          <mxGeometry relative="1" as="geometry">
            <mxPoint x="460" y="730" as="targetPoint" />
            <mxPoint x="-430" y="490" as="sourcePoint" />
            <Array as="points">
              <mxPoint x="-448" y="451" />
              <mxPoint x="-448" y="860" />
              <mxPoint x="590" y="860" />
              <mxPoint x="590" y="580" />
              <mxPoint x="490" y="580" />
            </Array>
          </mxGeometry>
        </mxCell>
        <mxCell id="IjaonLrTJWPJzYlzKZe0-2" value="&lt;font style=&quot;font-size: 11.000000953674316px&quot;&gt;code:&lt;br&gt;Codeable-&lt;br&gt;Concept&lt;/font&gt;" style="ellipse;whiteSpace=wrap;html=1;aspect=fixed;fillColor=#d5e8d4;strokeColor=#82b366;" parent="1" vertex="1">
          <mxGeometry x="-620" y="370" width="80" height="80" as="geometry" />
        </mxCell>
        <mxCell id="IjaonLrTJWPJzYlzKZe0-4" value="" style="endArrow=classic;html=1;exitX=0.5;exitY=1;exitDx=0;exitDy=0;entryX=0.5;entryY=0;entryDx=0;entryDy=0;" parent="1" source="IjaonLrTJWPJzYlzKZe0-2" target="h2Y0RTakNAgf0IYQmvkw-2" edge="1">
          <mxGeometry width="50" height="50" relative="1" as="geometry">
            <mxPoint x="-620" y="630" as="sourcePoint" />
            <mxPoint x="-570" y="580" as="targetPoint" />
          </mxGeometry>
        </mxCell>
        <mxCell id="GvtldfbDIdU1Wc1KAc5i-2" value="timeValue:&lt;br&gt;Temporal-&lt;br&gt;Accessor" style="ellipse;whiteSpace=wrap;html=1;aspect=fixed;fillColor=#d5e8d4;strokeColor=#82b366;" parent="1" vertex="1">
          <mxGeometry x="330" y="630" width="80" height="80" as="geometry" />
        </mxCell>
        <mxCell id="GvtldfbDIdU1Wc1KAc5i-3" value="originValue:&lt;br&gt;Temporal-&lt;br&gt;Accessor" style="ellipse;whiteSpace=wrap;html=1;aspect=fixed;fillColor=#d5e8d4;strokeColor=#82b366;" parent="1" vertex="1">
          <mxGeometry x="440" y="630" width="80" height="80" as="geometry" />
        </mxCell>
        <mxCell id="GvtldfbDIdU1Wc1KAc5i-4" style="edgeStyle=orthogonalEdgeStyle;curved=1;orthogonalLoop=1;jettySize=auto;html=1;strokeColor=#000000;entryX=0.5;entryY=0;entryDx=0;entryDy=0;exitX=0.5;exitY=1;exitDx=0;exitDy=0;" parent="1" source="h2Y0RTakNAgf0IYQmvkw-17" target="HiJEzuG3LjdG-relU3VR-48" edge="1">
          <mxGeometry relative="1" as="geometry">
            <mxPoint x="300" y="645" as="targetPoint" />
            <mxPoint x="-120" y="640" as="sourcePoint" />
            <Array as="points">
              <mxPoint x="-150" y="600" />
              <mxPoint x="-40" y="600" />
            </Array>
          </mxGeometry>
        </mxCell>
        <mxCell id="GvtldfbDIdU1Wc1KAc5i-5" style="edgeStyle=orthogonalEdgeStyle;curved=1;orthogonalLoop=1;jettySize=auto;html=1;strokeColor=#000000;entryX=0.5;entryY=0;entryDx=0;entryDy=0;exitX=0.5;exitY=1;exitDx=0;exitDy=0;" parent="1" source="h2Y0RTakNAgf0IYQmvkw-17" target="GvtldfbDIdU1Wc1KAc5i-3" edge="1">
          <mxGeometry relative="1" as="geometry">
            <mxPoint x="-50" y="650" as="targetPoint" />
            <mxPoint x="-140" y="590" as="sourcePoint" />
            <Array as="points">
              <mxPoint x="-150" y="600" />
              <mxPoint x="480" y="600" />
            </Array>
          </mxGeometry>
        </mxCell>
        <mxCell id="GvtldfbDIdU1Wc1KAc5i-7" style="edgeStyle=orthogonalEdgeStyle;curved=1;orthogonalLoop=1;jettySize=auto;html=1;exitX=0.5;exitY=1;exitDx=0;exitDy=0;dashed=1;entryX=0.5;entryY=1;entryDx=0;entryDy=0;" parent="1" source="h2Y0RTakNAgf0IYQmvkw-13" target="GvtldfbDIdU1Wc1KAc5i-2" edge="1">
          <mxGeometry relative="1" as="geometry">
            <mxPoint x="-172.5" y="745" as="targetPoint" />
            <mxPoint x="-730" y="655" as="sourcePoint" />
            <Array as="points">
              <mxPoint x="-320" y="480" />
              <mxPoint x="-470" y="480" />
              <mxPoint x="-470" y="840" />
              <mxPoint x="370" y="840" />
            </Array>
          </mxGeometry>
        </mxCell>
        <mxCell id="GvtldfbDIdU1Wc1KAc5i-8" style="edgeStyle=orthogonalEdgeStyle;curved=1;orthogonalLoop=1;jettySize=auto;html=1;exitX=0.5;exitY=1;exitDx=0;exitDy=0;dashed=1;entryX=0.5;entryY=1;entryDx=0;entryDy=0;" parent="1" source="h2Y0RTakNAgf0IYQmvkw-13" target="GvtldfbDIdU1Wc1KAc5i-3" edge="1">
          <mxGeometry relative="1" as="geometry">
            <mxPoint x="-50" y="730" as="targetPoint" />
            <mxPoint x="-430" y="490" as="sourcePoint" />
            <Array as="points">
              <mxPoint x="-320" y="490" />
              <mxPoint x="-440" y="490" />
              <mxPoint x="-440" y="850" />
              <mxPoint x="480" y="850" />
            </Array>
          </mxGeometry>
        </mxCell>
        <mxCell id="HiJEzuG3LjdG-relU3VR-2" value="respiratory-System:&lt;br&gt;Backbone-&lt;br&gt;Element" style="ellipse;whiteSpace=wrap;html=1;aspect=fixed;fillColor=#d5e8d4;strokeColor=#82b366;" parent="1" vertex="1">
          <mxGeometry x="-1275" y="520" width="80" height="80" as="geometry" />
        </mxCell>
        <mxCell id="HiJEzuG3LjdG-relU3VR-3" value="value[x]:&lt;br&gt;ValueSet" style="ellipse;whiteSpace=wrap;html=1;aspect=fixed;fillColor=#d5e8d4;strokeColor=#82b366;" parent="1" vertex="1">
          <mxGeometry x="-1275" y="640" width="80" height="80" as="geometry" />
        </mxCell>
        <mxCell id="HiJEzuG3LjdG-relU3VR-4" value="code:&lt;br&gt;Code" style="ellipse;whiteSpace=wrap;html=1;aspect=fixed;fillColor=#d5e8d4;strokeColor=#82b366;" parent="1" vertex="1">
          <mxGeometry x="-1275" y="780" width="80" height="80" as="geometry" />
        </mxCell>
        <mxCell id="HiJEzuG3LjdG-relU3VR-5" value="nervous-System:&lt;br&gt;Backbone-&lt;br&gt;Element" style="ellipse;whiteSpace=wrap;html=1;aspect=fixed;fillColor=#d5e8d4;strokeColor=#82b366;" parent="1" vertex="1">
          <mxGeometry x="-1140" y="520" width="80" height="80" as="geometry" />
        </mxCell>
        <mxCell id="HiJEzuG3LjdG-relU3VR-6" value="value[x]:&lt;br&gt;ValueSet" style="ellipse;whiteSpace=wrap;html=1;aspect=fixed;fillColor=#d5e8d4;strokeColor=#82b366;" parent="1" vertex="1">
          <mxGeometry x="-1140" y="640" width="80" height="80" as="geometry" />
        </mxCell>
        <mxCell id="HiJEzuG3LjdG-relU3VR-7" value="code:&lt;br&gt;Code" style="ellipse;whiteSpace=wrap;html=1;aspect=fixed;fillColor=#d5e8d4;strokeColor=#82b366;" parent="1" vertex="1">
          <mxGeometry x="-1140" y="780" width="80" height="80" as="geometry" />
        </mxCell>
        <mxCell id="HiJEzuG3LjdG-relU3VR-8" value="cardio-&lt;br&gt;vascular&lt;br&gt;System:&lt;br&gt;Backbone-&lt;br&gt;Element" style="ellipse;whiteSpace=wrap;html=1;aspect=fixed;fillColor=#d5e8d4;strokeColor=#82b366;" parent="1" vertex="1">
          <mxGeometry x="-1020" y="520" width="80" height="80" as="geometry" />
        </mxCell>
        <mxCell id="HiJEzuG3LjdG-relU3VR-9" value="value[x]:&lt;br&gt;ValueSet" style="ellipse;whiteSpace=wrap;html=1;aspect=fixed;fillColor=#d5e8d4;strokeColor=#82b366;" parent="1" vertex="1">
          <mxGeometry x="-1020" y="650" width="80" height="80" as="geometry" />
        </mxCell>
        <mxCell id="HiJEzuG3LjdG-relU3VR-10" value="code:&lt;br&gt;Code" style="ellipse;whiteSpace=wrap;html=1;aspect=fixed;fillColor=#d5e8d4;strokeColor=#82b366;" parent="1" vertex="1">
          <mxGeometry x="-1020" y="780" width="80" height="80" as="geometry" />
        </mxCell>
        <mxCell id="HiJEzuG3LjdG-relU3VR-11" value="liver:&lt;br&gt;Backbone-&lt;br&gt;Element" style="ellipse;whiteSpace=wrap;html=1;aspect=fixed;fillColor=#d5e8d4;strokeColor=#82b366;" parent="1" vertex="1">
          <mxGeometry x="-890" y="520" width="80" height="80" as="geometry" />
        </mxCell>
        <mxCell id="HiJEzuG3LjdG-relU3VR-12" value="value[x]:&lt;br&gt;ValueSet" style="ellipse;whiteSpace=wrap;html=1;aspect=fixed;fillColor=#d5e8d4;strokeColor=#82b366;" parent="1" vertex="1">
          <mxGeometry x="-890" y="640" width="80" height="80" as="geometry" />
        </mxCell>
        <mxCell id="HiJEzuG3LjdG-relU3VR-13" value="code:&lt;br&gt;Code" style="ellipse;whiteSpace=wrap;html=1;aspect=fixed;fillColor=#d5e8d4;strokeColor=#82b366;" parent="1" vertex="1">
          <mxGeometry x="-890" y="780" width="80" height="80" as="geometry" />
        </mxCell>
        <mxCell id="HiJEzuG3LjdG-relU3VR-14" value="kidneys:&lt;br&gt;Backbone-&lt;br&gt;Element" style="ellipse;whiteSpace=wrap;html=1;aspect=fixed;fillColor=#d5e8d4;strokeColor=#82b366;" parent="1" vertex="1">
          <mxGeometry x="-750" y="520" width="80" height="80" as="geometry" />
        </mxCell>
        <mxCell id="HiJEzuG3LjdG-relU3VR-15" value="value[x]:&lt;br&gt;ValueSet" style="ellipse;whiteSpace=wrap;html=1;aspect=fixed;fillColor=#d5e8d4;strokeColor=#82b366;" parent="1" vertex="1">
          <mxGeometry x="-750" y="640" width="80" height="80" as="geometry" />
        </mxCell>
        <mxCell id="HiJEzuG3LjdG-relU3VR-16" value="code:&lt;br&gt;Code" style="ellipse;whiteSpace=wrap;html=1;aspect=fixed;fillColor=#d5e8d4;strokeColor=#82b366;" parent="1" vertex="1">
          <mxGeometry x="-750" y="780" width="80" height="80" as="geometry" />
        </mxCell>
        <mxCell id="HiJEzuG3LjdG-relU3VR-17" value="coagulation:&lt;br&gt;Backbone-&lt;br&gt;Element" style="ellipse;whiteSpace=wrap;html=1;aspect=fixed;fillColor=#d5e8d4;strokeColor=#82b366;" parent="1" vertex="1">
          <mxGeometry x="-1390" y="520" width="80" height="80" as="geometry" />
        </mxCell>
        <mxCell id="HiJEzuG3LjdG-relU3VR-19" value="value[x]:&lt;br&gt;ValueSet" style="ellipse;whiteSpace=wrap;html=1;aspect=fixed;fillColor=#d5e8d4;strokeColor=#82b366;" parent="1" vertex="1">
          <mxGeometry x="-1390" y="640" width="80" height="80" as="geometry" />
        </mxCell>
        <mxCell id="HiJEzuG3LjdG-relU3VR-20" value="code:&lt;br&gt;Code" style="ellipse;whiteSpace=wrap;html=1;aspect=fixed;fillColor=#d5e8d4;strokeColor=#82b366;" parent="1" vertex="1">
          <mxGeometry x="-1390" y="780" width="80" height="80" as="geometry" />
        </mxCell>
        <mxCell id="HiJEzuG3LjdG-relU3VR-21" value="sofascore-&lt;br&gt;coding:&lt;br&gt;Coding" style="ellipse;whiteSpace=wrap;html=1;aspect=fixed;fillColor=#d5e8d4;strokeColor=#82b366;" parent="1" vertex="1">
          <mxGeometry x="-620" y="645" width="80" height="80" as="geometry" />
        </mxCell>
        <mxCell id="HiJEzuG3LjdG-relU3VR-22" value="code:&lt;br&gt;Code" style="ellipse;whiteSpace=wrap;html=1;aspect=fixed;fillColor=#d5e8d4;strokeColor=#82b366;" parent="1" vertex="1">
          <mxGeometry x="-620" y="780" width="80" height="80" as="geometry" />
        </mxCell>
        <mxCell id="HiJEzuG3LjdG-relU3VR-23" value="" style="endArrow=classic;html=1;exitX=0.5;exitY=1;exitDx=0;exitDy=0;entryX=0.5;entryY=0;entryDx=0;entryDy=0;" parent="1" source="h2Y0RTakNAgf0IYQmvkw-2" target="HiJEzuG3LjdG-relU3VR-21" edge="1">
          <mxGeometry width="50" height="50" relative="1" as="geometry">
            <mxPoint x="-520" y="600" as="sourcePoint" />
            <mxPoint x="-520" y="670" as="targetPoint" />
          </mxGeometry>
        </mxCell>
        <mxCell id="HiJEzuG3LjdG-relU3VR-24" value="" style="endArrow=classic;html=1;entryX=0.5;entryY=0;entryDx=0;entryDy=0;exitX=0.5;exitY=1;exitDx=0;exitDy=0;" parent="1" source="HiJEzuG3LjdG-relU3VR-21" target="HiJEzuG3LjdG-relU3VR-22" edge="1">
          <mxGeometry width="50" height="50" relative="1" as="geometry">
            <mxPoint x="-570" y="610" as="sourcePoint" />
            <mxPoint x="-570" y="655" as="targetPoint" />
            <Array as="points" />
          </mxGeometry>
        </mxCell>
        <mxCell id="HiJEzuG3LjdG-relU3VR-26" value="" style="endArrow=classic;html=1;exitX=0.5;exitY=1;exitDx=0;exitDy=0;entryX=0.5;entryY=0;entryDx=0;entryDy=0;" parent="1" source="HiJEzuG3LjdG-relU3VR-14" target="HiJEzuG3LjdG-relU3VR-15" edge="1">
          <mxGeometry width="50" height="50" relative="1" as="geometry">
            <mxPoint x="-710" y="610" as="sourcePoint" />
            <mxPoint x="-710" y="630" as="targetPoint" />
          </mxGeometry>
        </mxCell>
        <mxCell id="HiJEzuG3LjdG-relU3VR-28" value="" style="endArrow=classic;html=1;exitX=0.5;exitY=1;exitDx=0;exitDy=0;entryX=0.5;entryY=0;entryDx=0;entryDy=0;" parent="1" source="HiJEzuG3LjdG-relU3VR-11" target="HiJEzuG3LjdG-relU3VR-12" edge="1">
          <mxGeometry width="50" height="50" relative="1" as="geometry">
            <mxPoint x="-700" y="610" as="sourcePoint" />
            <mxPoint x="-700" y="650" as="targetPoint" />
            <Array as="points" />
          </mxGeometry>
        </mxCell>
        <mxCell id="HiJEzuG3LjdG-relU3VR-29" value="" style="endArrow=classic;html=1;exitX=0.5;exitY=1;exitDx=0;exitDy=0;entryX=0.5;entryY=0;entryDx=0;entryDy=0;" parent="1" source="HiJEzuG3LjdG-relU3VR-8" target="HiJEzuG3LjdG-relU3VR-9" edge="1">
          <mxGeometry width="50" height="50" relative="1" as="geometry">
            <mxPoint x="-690" y="620" as="sourcePoint" />
            <mxPoint x="-690" y="660" as="targetPoint" />
          </mxGeometry>
        </mxCell>
        <mxCell id="HiJEzuG3LjdG-relU3VR-30" value="" style="endArrow=classic;html=1;exitX=0.5;exitY=1;exitDx=0;exitDy=0;entryX=0.5;entryY=0;entryDx=0;entryDy=0;" parent="1" source="HiJEzuG3LjdG-relU3VR-5" target="HiJEzuG3LjdG-relU3VR-6" edge="1">
          <mxGeometry width="50" height="50" relative="1" as="geometry">
            <mxPoint x="-970" y="610" as="sourcePoint" />
            <mxPoint x="-970" y="650" as="targetPoint" />
          </mxGeometry>
        </mxCell>
        <mxCell id="HiJEzuG3LjdG-relU3VR-31" value="" style="endArrow=classic;html=1;exitX=0.5;exitY=1;exitDx=0;exitDy=0;entryX=0.5;entryY=0;entryDx=0;entryDy=0;" parent="1" source="HiJEzuG3LjdG-relU3VR-2" target="HiJEzuG3LjdG-relU3VR-3" edge="1">
          <mxGeometry width="50" height="50" relative="1" as="geometry">
            <mxPoint x="-960" y="620" as="sourcePoint" />
            <mxPoint x="-960" y="660" as="targetPoint" />
          </mxGeometry>
        </mxCell>
        <mxCell id="HiJEzuG3LjdG-relU3VR-32" value="" style="endArrow=classic;html=1;exitX=0.5;exitY=1;exitDx=0;exitDy=0;" parent="1" source="HiJEzuG3LjdG-relU3VR-17" target="HiJEzuG3LjdG-relU3VR-19" edge="1">
          <mxGeometry width="50" height="50" relative="1" as="geometry">
            <mxPoint x="-1225" y="610" as="sourcePoint" />
            <mxPoint x="-1225" y="650" as="targetPoint" />
          </mxGeometry>
        </mxCell>
        <mxCell id="HiJEzuG3LjdG-relU3VR-33" value="" style="endArrow=classic;html=1;exitX=0.5;exitY=1;exitDx=0;exitDy=0;entryX=0.5;entryY=0;entryDx=0;entryDy=0;" parent="1" source="HiJEzuG3LjdG-relU3VR-19" target="HiJEzuG3LjdG-relU3VR-20" edge="1">
          <mxGeometry width="50" height="50" relative="1" as="geometry">
            <mxPoint x="-1340" y="610" as="sourcePoint" />
            <mxPoint x="-1340" y="650" as="targetPoint" />
          </mxGeometry>
        </mxCell>
        <mxCell id="HiJEzuG3LjdG-relU3VR-35" value="" style="endArrow=classic;html=1;exitX=0.5;exitY=1;exitDx=0;exitDy=0;entryX=0.5;entryY=0;entryDx=0;entryDy=0;" parent="1" source="HiJEzuG3LjdG-relU3VR-3" target="HiJEzuG3LjdG-relU3VR-4" edge="1">
          <mxGeometry width="50" height="50" relative="1" as="geometry">
            <mxPoint x="-1340" y="730" as="sourcePoint" />
            <mxPoint x="-1340" y="790" as="targetPoint" />
          </mxGeometry>
        </mxCell>
        <mxCell id="HiJEzuG3LjdG-relU3VR-36" value="" style="endArrow=classic;html=1;exitX=0.5;exitY=1;exitDx=0;exitDy=0;entryX=0.5;entryY=0;entryDx=0;entryDy=0;" parent="1" source="HiJEzuG3LjdG-relU3VR-6" target="HiJEzuG3LjdG-relU3VR-7" edge="1">
          <mxGeometry width="50" height="50" relative="1" as="geometry">
            <mxPoint x="-1225" y="730" as="sourcePoint" />
            <mxPoint x="-1225" y="790" as="targetPoint" />
          </mxGeometry>
        </mxCell>
        <mxCell id="HiJEzuG3LjdG-relU3VR-37" value="" style="endArrow=classic;html=1;exitX=0.5;exitY=1;exitDx=0;exitDy=0;" parent="1" source="HiJEzuG3LjdG-relU3VR-9" target="HiJEzuG3LjdG-relU3VR-10" edge="1">
          <mxGeometry width="50" height="50" relative="1" as="geometry">
            <mxPoint x="-1090" y="730" as="sourcePoint" />
            <mxPoint x="-1090" y="790" as="targetPoint" />
          </mxGeometry>
        </mxCell>
        <mxCell id="HiJEzuG3LjdG-relU3VR-38" value="" style="endArrow=classic;html=1;exitX=0.5;exitY=1;exitDx=0;exitDy=0;entryX=0.5;entryY=0;entryDx=0;entryDy=0;" parent="1" source="HiJEzuG3LjdG-relU3VR-12" target="HiJEzuG3LjdG-relU3VR-13" edge="1">
          <mxGeometry width="50" height="50" relative="1" as="geometry">
            <mxPoint x="-970" y="730" as="sourcePoint" />
            <mxPoint x="-970" y="790" as="targetPoint" />
          </mxGeometry>
        </mxCell>
        <mxCell id="HiJEzuG3LjdG-relU3VR-39" value="" style="endArrow=classic;html=1;exitX=0.5;exitY=1;exitDx=0;exitDy=0;entryX=0.5;entryY=0;entryDx=0;entryDy=0;" parent="1" source="HiJEzuG3LjdG-relU3VR-15" target="HiJEzuG3LjdG-relU3VR-16" edge="1">
          <mxGeometry width="50" height="50" relative="1" as="geometry">
            <mxPoint x="-840" y="730" as="sourcePoint" />
            <mxPoint x="-840" y="790" as="targetPoint" />
          </mxGeometry>
        </mxCell>
        <mxCell id="HiJEzuG3LjdG-relU3VR-40" value="" style="endArrow=classic;html=1;entryX=0.5;entryY=0;entryDx=0;entryDy=0;exitX=0.5;exitY=1;exitDx=0;exitDy=0;" parent="1" source="BWCG1YFNvTNrp1tG9PvR-5" target="HiJEzuG3LjdG-relU3VR-14" edge="1">
          <mxGeometry width="50" height="50" relative="1" as="geometry">
            <mxPoint x="-1040" y="460" as="sourcePoint" />
            <mxPoint x="-570" y="530" as="targetPoint" />
            <Array as="points">
              <mxPoint x="-800" y="450" />
            </Array>
          </mxGeometry>
        </mxCell>
        <mxCell id="HiJEzuG3LjdG-relU3VR-41" value="" style="endArrow=classic;html=1;exitX=0.5;exitY=1;exitDx=0;exitDy=0;entryX=0.5;entryY=0;entryDx=0;entryDy=0;" parent="1" source="BWCG1YFNvTNrp1tG9PvR-5" target="HiJEzuG3LjdG-relU3VR-11" edge="1">
          <mxGeometry width="50" height="50" relative="1" as="geometry">
            <mxPoint x="-570" y="460" as="sourcePoint" />
            <mxPoint x="-570" y="530" as="targetPoint" />
            <Array as="points">
              <mxPoint x="-900" y="470" />
            </Array>
          </mxGeometry>
        </mxCell>
        <mxCell id="HiJEzuG3LjdG-relU3VR-42" value="" style="endArrow=classic;html=1;exitX=0.5;exitY=1;exitDx=0;exitDy=0;entryX=0.5;entryY=0;entryDx=0;entryDy=0;" parent="1" source="BWCG1YFNvTNrp1tG9PvR-5" target="HiJEzuG3LjdG-relU3VR-8" edge="1">
          <mxGeometry width="50" height="50" relative="1" as="geometry">
            <mxPoint x="-570" y="460" as="sourcePoint" />
            <mxPoint x="-570" y="530" as="targetPoint" />
            <Array as="points">
              <mxPoint x="-980" y="470" />
            </Array>
          </mxGeometry>
        </mxCell>
        <mxCell id="HiJEzuG3LjdG-relU3VR-43" value="" style="endArrow=classic;html=1;exitX=0.5;exitY=1;exitDx=0;exitDy=0;entryX=0.5;entryY=0;entryDx=0;entryDy=0;" parent="1" source="BWCG1YFNvTNrp1tG9PvR-5" target="HiJEzuG3LjdG-relU3VR-5" edge="1">
          <mxGeometry width="50" height="50" relative="1" as="geometry">
            <mxPoint x="-560" y="470" as="sourcePoint" />
            <mxPoint x="-560" y="540" as="targetPoint" />
            <Array as="points">
              <mxPoint x="-1100" y="460" />
            </Array>
          </mxGeometry>
        </mxCell>
        <mxCell id="HiJEzuG3LjdG-relU3VR-44" value="" style="endArrow=classic;html=1;entryX=0.5;entryY=0;entryDx=0;entryDy=0;exitX=0.5;exitY=1;exitDx=0;exitDy=0;" parent="1" source="BWCG1YFNvTNrp1tG9PvR-5" target="HiJEzuG3LjdG-relU3VR-2" edge="1">
          <mxGeometry width="50" height="50" relative="1" as="geometry">
            <mxPoint x="-1040" y="460" as="sourcePoint" />
            <mxPoint x="-550" y="550" as="targetPoint" />
            <Array as="points">
              <mxPoint x="-1200" y="460" />
            </Array>
          </mxGeometry>
        </mxCell>
        <mxCell id="HiJEzuG3LjdG-relU3VR-45" value="" style="endArrow=classic;html=1;exitX=0.5;exitY=1;exitDx=0;exitDy=0;entryX=0.5;entryY=0;entryDx=0;entryDy=0;" parent="1" source="BWCG1YFNvTNrp1tG9PvR-5" target="HiJEzuG3LjdG-relU3VR-17" edge="1">
          <mxGeometry width="50" height="50" relative="1" as="geometry">
            <mxPoint x="-540" y="490" as="sourcePoint" />
            <mxPoint x="-540" y="560" as="targetPoint" />
            <Array as="points">
              <mxPoint x="-1290" y="440" />
            </Array>
          </mxGeometry>
        </mxCell>
        <mxCell id="HiJEzuG3LjdG-relU3VR-46" value="atemtatigkeit:&lt;br&gt;DvOrdinal" style="ellipse;whiteSpace=wrap;html=1;aspect=fixed;fillColor=#d5e8d4;strokeColor=#82b366;" parent="1" vertex="1">
          <mxGeometry x="-320" y="630" width="80" height="80" as="geometry" />
        </mxCell>
        <mxCell id="HiJEzuG3LjdG-relU3VR-47" value="nierentatigkeit:&lt;br&gt;DvOrdinal" style="ellipse;whiteSpace=wrap;html=1;aspect=fixed;fillColor=#d5e8d4;strokeColor=#82b366;" parent="1" vertex="1">
          <mxGeometry x="-210" y="630" width="80" height="80" as="geometry" />
        </mxCell>
        <mxCell id="HiJEzuG3LjdG-relU3VR-48" value="zentrales-Nervensystem:&lt;br&gt;DvOrdinal" style="ellipse;whiteSpace=wrap;html=1;aspect=fixed;fillColor=#d5e8d4;strokeColor=#82b366;" parent="1" vertex="1">
          <mxGeometry x="-80" y="630" width="80" height="80" as="geometry" />
        </mxCell>
        <mxCell id="HiJEzuG3LjdG-relU3VR-49" value="herzkreislauf-System:&lt;br&gt;DvOrdinal" style="ellipse;whiteSpace=wrap;html=1;aspect=fixed;fillColor=#d5e8d4;strokeColor=#82b366;" parent="1" vertex="1">
          <mxGeometry x="30" y="630" width="80" height="80" as="geometry" />
        </mxCell>
        <mxCell id="HiJEzuG3LjdG-relU3VR-51" value="leberfunktion:&lt;br&gt;DvOrdinal" style="ellipse;whiteSpace=wrap;html=1;aspect=fixed;fillColor=#d5e8d4;strokeColor=#82b366;" parent="1" vertex="1">
          <mxGeometry x="240" y="630" width="80" height="80" as="geometry" />
        </mxCell>
        <mxCell id="h2Y0RTakNAgf0IYQmvkw-18" value="&lt;font color=&quot;#ff0000&quot;&gt;statusDefining-&lt;br&gt;Code: Enum-&lt;br&gt;ValueSet&lt;br&gt;&lt;/font&gt;" style="ellipse;whiteSpace=wrap;html=1;aspect=fixed;fillColor=#d5e8d4;strokeColor=#82b366;" parent="1" vertex="1">
          <mxGeometry x="220" y="440" width="80" height="80" as="geometry" />
        </mxCell>
        <mxCell id="HiJEzuG3LjdG-relU3VR-53" value="&lt;font color=&quot;#ff0000&quot;&gt;KATEGORIE&lt;/font&gt;?" style="ellipse;whiteSpace=wrap;html=1;aspect=fixed;fillColor=#d5e8d4;strokeColor=#82b366;" parent="1" vertex="1">
          <mxGeometry x="320" y="440" width="80" height="80" as="geometry" />
        </mxCell>
        <mxCell id="HiJEzuG3LjdG-relU3VR-55" style="edgeStyle=orthogonalEdgeStyle;curved=1;orthogonalLoop=1;jettySize=auto;html=1;strokeColor=#000000;entryX=0.5;entryY=0;entryDx=0;entryDy=0;exitX=0.5;exitY=1;exitDx=0;exitDy=0;" parent="1" source="h2Y0RTakNAgf0IYQmvkw-17" target="GvtldfbDIdU1Wc1KAc5i-2" edge="1">
          <mxGeometry relative="1" as="geometry">
            <mxPoint x="490" y="650" as="targetPoint" />
            <mxPoint x="-140" y="590" as="sourcePoint" />
            <Array as="points">
              <mxPoint x="-140" y="580" />
              <mxPoint x="-140" y="610" />
              <mxPoint x="370" y="610" />
            </Array>
          </mxGeometry>
        </mxCell>
        <mxCell id="HiJEzuG3LjdG-relU3VR-56" style="edgeStyle=orthogonalEdgeStyle;curved=1;orthogonalLoop=1;jettySize=auto;html=1;strokeColor=#000000;entryX=0.5;entryY=0;entryDx=0;entryDy=0;exitX=0.5;exitY=1;exitDx=0;exitDy=0;" parent="1" source="h2Y0RTakNAgf0IYQmvkw-17" target="HiJEzuG3LjdG-relU3VR-51" edge="1">
          <mxGeometry relative="1" as="geometry">
            <mxPoint x="390" y="660" as="targetPoint" />
            <mxPoint x="-140" y="590" as="sourcePoint" />
            <Array as="points">
              <mxPoint x="-150" y="600" />
              <mxPoint x="280" y="600" />
            </Array>
          </mxGeometry>
        </mxCell>
        <mxCell id="HiJEzuG3LjdG-relU3VR-57" style="edgeStyle=orthogonalEdgeStyle;curved=1;orthogonalLoop=1;jettySize=auto;html=1;strokeColor=#000000;exitX=0.5;exitY=1;exitDx=0;exitDy=0;entryX=0.625;entryY=0;entryDx=0;entryDy=0;entryPerimeter=0;" parent="1" source="h2Y0RTakNAgf0IYQmvkw-17" target="HiJEzuG3LjdG-relU3VR-49" edge="1">
          <mxGeometry relative="1" as="geometry">
            <mxPoint x="260" y="650" as="targetPoint" />
            <mxPoint x="-140" y="590" as="sourcePoint" />
            <Array as="points">
              <mxPoint x="-150" y="610" />
              <mxPoint x="80" y="610" />
            </Array>
          </mxGeometry>
        </mxCell>
        <mxCell id="HiJEzuG3LjdG-relU3VR-58" style="edgeStyle=orthogonalEdgeStyle;curved=1;orthogonalLoop=1;jettySize=auto;html=1;exitX=0.5;exitY=1;exitDx=0;exitDy=0;strokeColor=#000000;entryX=0.5;entryY=0;entryDx=0;entryDy=0;" parent="1" source="h2Y0RTakNAgf0IYQmvkw-17" target="HiJEzuG3LjdG-relU3VR-47" edge="1">
          <mxGeometry relative="1" as="geometry">
            <mxPoint x="-270" y="640" as="targetPoint" />
            <mxPoint x="-140" y="590" as="sourcePoint" />
            <Array as="points">
              <mxPoint x="-150" y="590" />
              <mxPoint x="-170" y="590" />
            </Array>
          </mxGeometry>
        </mxCell>
        <mxCell id="HiJEzuG3LjdG-relU3VR-60" value="blutgerinnung:&lt;br&gt;DvOrdinal" style="ellipse;whiteSpace=wrap;html=1;aspect=fixed;fillColor=#d5e8d4;strokeColor=#82b366;" parent="1" vertex="1">
          <mxGeometry x="140" y="630" width="80" height="80" as="geometry" />
        </mxCell>
        <mxCell id="HiJEzuG3LjdG-relU3VR-61" style="edgeStyle=orthogonalEdgeStyle;curved=1;orthogonalLoop=1;jettySize=auto;html=1;strokeColor=#000000;entryX=0.5;entryY=0;entryDx=0;entryDy=0;exitX=0.5;exitY=1;exitDx=0;exitDy=0;" parent="1" source="h2Y0RTakNAgf0IYQmvkw-17" target="HiJEzuG3LjdG-relU3VR-60" edge="1">
          <mxGeometry relative="1" as="geometry">
            <mxPoint x="290" y="640" as="targetPoint" />
            <mxPoint x="-140" y="590" as="sourcePoint" />
            <Array as="points">
              <mxPoint x="-150" y="590" />
              <mxPoint x="180" y="590" />
            </Array>
          </mxGeometry>
        </mxCell>
        <mxCell id="701iYY2TkN9A8t3K9gso-2" value="value: Integer" style="ellipse;whiteSpace=wrap;html=1;aspect=fixed;fillColor=#d5e8d4;strokeColor=#82b366;" vertex="1" parent="1">
          <mxGeometry x="-270" y="370" width="80" height="80" as="geometry" />
        </mxCell>
        <mxCell id="701iYY2TkN9A8t3K9gso-3" style="edgeStyle=orthogonalEdgeStyle;curved=1;orthogonalLoop=1;jettySize=auto;html=1;exitX=0.5;exitY=1;exitDx=0;exitDy=0;dashed=1;entryX=0.5;entryY=1;entryDx=0;entryDy=0;" edge="1" parent="1" source="701iYY2TkN9A8t3K9gso-2" target="h2Y0RTakNAgf0IYQmvkw-20">
          <mxGeometry relative="1" as="geometry">
            <mxPoint x="-350" y="720" as="targetPoint" />
            <mxPoint x="-310" y="460" as="sourcePoint" />
            <Array as="points">
              <mxPoint x="-230" y="490" />
              <mxPoint x="-460" y="490" />
              <mxPoint x="-460" y="850" />
              <mxPoint x="-385" y="850" />
            </Array>
          </mxGeometry>
        </mxCell>
        <mxCell id="701iYY2TkN9A8t3K9gso-4" style="edgeStyle=orthogonalEdgeStyle;curved=1;orthogonalLoop=1;jettySize=auto;html=1;strokeColor=#000000;entryX=0.5;entryY=0;entryDx=0;entryDy=0;" edge="1" parent="1" target="701iYY2TkN9A8t3K9gso-2">
          <mxGeometry relative="1" as="geometry">
            <mxPoint x="-310" y="380" as="targetPoint" />
            <mxPoint x="-830" y="310" as="sourcePoint" />
            <Array as="points">
              <mxPoint x="-830" y="330" />
              <mxPoint x="-230" y="330" />
            </Array>
          </mxGeometry>
        </mxCell>
        <mxCell id="701iYY2TkN9A8t3K9gso-5" value="SOFA-SCORE" style="rounded=1;whiteSpace=wrap;html=1;fillColor=#dae8fc;strokeColor=#6c8ebf;" vertex="1" parent="1">
          <mxGeometry x="-894.5" y="1440" width="200" height="60" as="geometry" />
        </mxCell>
        <mxCell id="701iYY2TkN9A8t3K9gso-7" value="&lt;div class=&quot;cm-node-details-value cm-node-details-arch-id&quot;&gt;openEHR-EHR-COMPOSITION.report-result.v1&lt;/div&gt;" style="rounded=1;whiteSpace=wrap;html=1;fillColor=#ffe6cc;strokeColor=#d79b00;" vertex="1" parent="1">
          <mxGeometry x="-894.5" y="1320" width="200" height="60" as="geometry" />
        </mxCell>
        <mxCell id="701iYY2TkN9A8t3K9gso-8" value="" style="endArrow=classic;html=1;exitX=0.5;exitY=0;exitDx=0;exitDy=0;verticalAlign=bottom;entryX=0.5;entryY=1;entryDx=0;entryDy=0;" edge="1" parent="1" source="701iYY2TkN9A8t3K9gso-5" target="701iYY2TkN9A8t3K9gso-7">
          <mxGeometry width="50" height="50" relative="1" as="geometry">
            <mxPoint x="-790" y="1380" as="sourcePoint" />
            <mxPoint x="-730" y="1370" as="targetPoint" />
            <Array as="points" />
          </mxGeometry>
        </mxCell>
        <mxCell id="701iYY2TkN9A8t3K9gso-9" value="&lt;div class=&quot;cm-node-details-value cm-node-details-arch-id&quot;&gt;&lt;span style=&quot;font-family: &amp;#34;tahoma&amp;#34; , &amp;#34;arial&amp;#34; , &amp;#34;helvetica&amp;#34; , sans-serif ; font-size: 11px&quot;&gt;openEHR-EHR-OBSERVATION.sofa_score.v0&lt;/span&gt;&lt;br&gt;&lt;/div&gt;" style="rounded=1;whiteSpace=wrap;html=1;fillColor=#ffe6cc;strokeColor=#d79b00;" vertex="1" parent="1">
          <mxGeometry x="-1350" y="1150" width="220" height="60" as="geometry" />
        </mxCell>
        <mxCell id="701iYY2TkN9A8t3K9gso-10" value="statusDefining-&lt;br&gt;Code: Enum-&lt;br&gt;ValueSet" style="ellipse;whiteSpace=wrap;html=1;aspect=fixed;fillColor=#d5e8d4;strokeColor=#82b366;" vertex="1" parent="1">
          <mxGeometry x="-670" y="1150" width="80" height="80" as="geometry" />
        </mxCell>
        <mxCell id="701iYY2TkN9A8t3K9gso-11" value="&lt;span&gt;Kategorie&lt;font color=&quot;#ff0000&quot;&gt;:&lt;/font&gt;&lt;br&gt;&lt;/span&gt;String" style="ellipse;whiteSpace=wrap;html=1;aspect=fixed;fillColor=#d5e8d4;strokeColor=#82b366;" vertex="1" parent="1">
          <mxGeometry x="-520" y="1150" width="80" height="80" as="geometry" />
        </mxCell>
        <mxCell id="701iYY2TkN9A8t3K9gso-12" value="start- timeValue: DateTime" style="ellipse;whiteSpace=wrap;html=1;aspect=fixed;fillColor=#d5e8d4;strokeColor=#82b366;" vertex="1" parent="1">
          <mxGeometry x="-360" y="1150" width="80" height="80" as="geometry" />
        </mxCell>
        <mxCell id="701iYY2TkN9A8t3K9gso-13" style="edgeStyle=orthogonalEdgeStyle;curved=1;orthogonalLoop=1;jettySize=auto;html=1;exitX=0.5;exitY=0;exitDx=0;exitDy=0;strokeColor=#000000;entryX=0.5;entryY=1;entryDx=0;entryDy=0;" edge="1" parent="1" source="701iYY2TkN9A8t3K9gso-7" target="701iYY2TkN9A8t3K9gso-9">
          <mxGeometry relative="1" as="geometry">
            <mxPoint x="-1140" y="1410" as="targetPoint" />
            <mxPoint x="-990" y="1260" as="sourcePoint" />
            <Array as="points">
              <mxPoint x="-794" y="1260" />
              <mxPoint x="-1080" y="1260" />
              <mxPoint x="-1080" y="1270" />
              <mxPoint x="-1240" y="1270" />
            </Array>
          </mxGeometry>
        </mxCell>
        <mxCell id="701iYY2TkN9A8t3K9gso-14" style="edgeStyle=orthogonalEdgeStyle;curved=1;orthogonalLoop=1;jettySize=auto;html=1;exitX=0.5;exitY=0;exitDx=0;exitDy=0;strokeColor=#000000;entryX=0.5;entryY=1;entryDx=0;entryDy=0;" edge="1" parent="1" source="701iYY2TkN9A8t3K9gso-7" target="701iYY2TkN9A8t3K9gso-10">
          <mxGeometry relative="1" as="geometry">
            <mxPoint x="-300" y="1410" as="targetPoint" />
            <mxPoint x="-570" y="1340" as="sourcePoint" />
            <Array as="points">
              <mxPoint x="-794" y="1270" />
              <mxPoint x="-630" y="1270" />
            </Array>
          </mxGeometry>
        </mxCell>
        <mxCell id="701iYY2TkN9A8t3K9gso-15" style="edgeStyle=orthogonalEdgeStyle;curved=1;orthogonalLoop=1;jettySize=auto;html=1;exitX=0.5;exitY=0;exitDx=0;exitDy=0;strokeColor=#000000;entryX=0.5;entryY=1;entryDx=0;entryDy=0;" edge="1" parent="1" source="701iYY2TkN9A8t3K9gso-7" target="701iYY2TkN9A8t3K9gso-11">
          <mxGeometry relative="1" as="geometry">
            <mxPoint x="-315.5" y="1220" as="targetPoint" />
            <mxPoint x="-480" y="1310" as="sourcePoint" />
            <Array as="points">
              <mxPoint x="-795" y="1280" />
              <mxPoint x="-480" y="1280" />
            </Array>
          </mxGeometry>
        </mxCell>
        <mxCell id="701iYY2TkN9A8t3K9gso-16" style="edgeStyle=orthogonalEdgeStyle;curved=1;orthogonalLoop=1;jettySize=auto;html=1;exitX=0.5;exitY=0;exitDx=0;exitDy=0;strokeColor=#000000;entryX=0.5;entryY=1;entryDx=0;entryDy=0;" edge="1" parent="1" source="701iYY2TkN9A8t3K9gso-7" target="701iYY2TkN9A8t3K9gso-12">
          <mxGeometry relative="1" as="geometry">
            <mxPoint x="-25.5" y="1210" as="targetPoint" />
            <mxPoint x="-340" y="1300" as="sourcePoint" />
            <Array as="points">
              <mxPoint x="-795" y="1310" />
              <mxPoint x="-320" y="1310" />
            </Array>
          </mxGeometry>
        </mxCell>
        <mxCell id="701iYY2TkN9A8t3K9gso-17" value="blutgerinnung:&lt;br&gt;DvOrdinal" style="ellipse;whiteSpace=wrap;html=1;aspect=fixed;fillColor=#d5e8d4;strokeColor=#82b366;" vertex="1" parent="1">
          <mxGeometry x="-1390" y="950" width="80" height="80" as="geometry" />
        </mxCell>
        <mxCell id="701iYY2TkN9A8t3K9gso-18" value="" style="endArrow=classic;html=1;exitX=0.5;exitY=1;exitDx=0;exitDy=0;entryX=0.5;entryY=0;entryDx=0;entryDy=0;dashed=1;" edge="1" parent="1" source="HiJEzuG3LjdG-relU3VR-20" target="701iYY2TkN9A8t3K9gso-17">
          <mxGeometry width="50" height="50" relative="1" as="geometry">
            <mxPoint x="-1050" y="850" as="sourcePoint" />
            <mxPoint x="-1000" y="800" as="targetPoint" />
          </mxGeometry>
        </mxCell>
        <mxCell id="701iYY2TkN9A8t3K9gso-19" value="atemtatigkeit:&lt;br&gt;DvOrdinal" style="ellipse;whiteSpace=wrap;html=1;aspect=fixed;fillColor=#d5e8d4;strokeColor=#82b366;" vertex="1" parent="1">
          <mxGeometry x="-1275" y="950" width="80" height="80" as="geometry" />
        </mxCell>
        <mxCell id="701iYY2TkN9A8t3K9gso-20" value="" style="endArrow=classic;html=1;dashed=1;exitX=0.5;exitY=1;exitDx=0;exitDy=0;entryX=0.5;entryY=0;entryDx=0;entryDy=0;" edge="1" parent="1" source="HiJEzuG3LjdG-relU3VR-4" target="701iYY2TkN9A8t3K9gso-19">
          <mxGeometry width="50" height="50" relative="1" as="geometry">
            <mxPoint x="-1210" y="890" as="sourcePoint" />
            <mxPoint x="-1180" y="940" as="targetPoint" />
          </mxGeometry>
        </mxCell>
        <mxCell id="701iYY2TkN9A8t3K9gso-21" value="zentrales-Nervensystem:&lt;br&gt;DvOrdinal" style="ellipse;whiteSpace=wrap;html=1;aspect=fixed;fillColor=#d5e8d4;strokeColor=#82b366;" vertex="1" parent="1">
          <mxGeometry x="-1140" y="950" width="80" height="80" as="geometry" />
        </mxCell>
        <mxCell id="701iYY2TkN9A8t3K9gso-22" value="" style="endArrow=classic;html=1;dashed=1;exitX=0.5;exitY=1;exitDx=0;exitDy=0;entryX=0.5;entryY=0;entryDx=0;entryDy=0;" edge="1" parent="1" source="HiJEzuG3LjdG-relU3VR-7" target="701iYY2TkN9A8t3K9gso-21">
          <mxGeometry width="50" height="50" relative="1" as="geometry">
            <mxPoint x="-1100" y="900" as="sourcePoint" />
            <mxPoint x="-1100" y="950" as="targetPoint" />
          </mxGeometry>
        </mxCell>
        <mxCell id="701iYY2TkN9A8t3K9gso-23" value="herzkreislauf-System:&lt;br&gt;DvOrdinal" style="ellipse;whiteSpace=wrap;html=1;aspect=fixed;fillColor=#d5e8d4;strokeColor=#82b366;" vertex="1" parent="1">
          <mxGeometry x="-1020" y="950" width="80" height="80" as="geometry" />
        </mxCell>
        <mxCell id="701iYY2TkN9A8t3K9gso-24" value="" style="endArrow=classic;html=1;dashed=1;exitX=0.5;exitY=1;exitDx=0;exitDy=0;entryX=0.5;entryY=0;entryDx=0;entryDy=0;" edge="1" parent="1" source="HiJEzuG3LjdG-relU3VR-10" target="701iYY2TkN9A8t3K9gso-23">
          <mxGeometry width="50" height="50" relative="1" as="geometry">
            <mxPoint x="-970" y="900" as="sourcePoint" />
            <mxPoint x="-970" y="990" as="targetPoint" />
          </mxGeometry>
        </mxCell>
        <mxCell id="701iYY2TkN9A8t3K9gso-25" value="leberfunktion:&lt;br&gt;DvOrdinal" style="ellipse;whiteSpace=wrap;html=1;aspect=fixed;fillColor=#d5e8d4;strokeColor=#82b366;" vertex="1" parent="1">
          <mxGeometry x="-890" y="950" width="80" height="80" as="geometry" />
        </mxCell>
        <mxCell id="701iYY2TkN9A8t3K9gso-26" value="" style="endArrow=classic;html=1;dashed=1;exitX=0.5;exitY=1;exitDx=0;exitDy=0;entryX=0.5;entryY=0;entryDx=0;entryDy=0;" edge="1" parent="1" source="HiJEzuG3LjdG-relU3VR-13" target="701iYY2TkN9A8t3K9gso-25">
          <mxGeometry width="50" height="50" relative="1" as="geometry">
            <mxPoint x="-820" y="910" as="sourcePoint" />
            <mxPoint x="-820" y="1000" as="targetPoint" />
          </mxGeometry>
        </mxCell>
        <mxCell id="701iYY2TkN9A8t3K9gso-27" value="nierentatigkeit:&lt;br&gt;DvOrdinal" style="ellipse;whiteSpace=wrap;html=1;aspect=fixed;fillColor=#d5e8d4;strokeColor=#82b366;" vertex="1" parent="1">
          <mxGeometry x="-750" y="950" width="80" height="80" as="geometry" />
        </mxCell>
        <mxCell id="701iYY2TkN9A8t3K9gso-28" value="" style="endArrow=classic;html=1;dashed=1;exitX=0.5;exitY=1;exitDx=0;exitDy=0;entryX=0.5;entryY=0;entryDx=0;entryDy=0;" edge="1" parent="1" source="HiJEzuG3LjdG-relU3VR-16" target="701iYY2TkN9A8t3K9gso-27">
          <mxGeometry width="50" height="50" relative="1" as="geometry">
            <mxPoint x="-680" y="900" as="sourcePoint" />
            <mxPoint x="-680" y="990" as="targetPoint" />
          </mxGeometry>
        </mxCell>
      </root>
    </mxGraphModel>
  </diagram>
</mxfile>
